
<svg width="104" height="22" xmlns="http://www.w3.org/2000/svg">
  <path d="M2.96 10.83l.1-5.08c0-.53-.03-1.42-.07-2.67-.02-.57-.27-1.01-.75-1.33a3.2 3.2 0 0 0-1.68-.5c-.32 0-.48-.17-.48-.52C.08.45.36.3.92.3l.81.06 7.33.15 6-.12c.39 0 .58.23.58.68 0 .12-.06.5-.18 1.17a8.89 8.89 0 0 0-.18 1.53c0 .63-.16.94-.48.94-.3 0-.45-.23-.45-.7s-.18-.92-.52-1.36A1.64 1.64 0 0 0 12.57 2c-1.8-.14-3.18-.2-4.14-.2h-.78c-1.04 0-1.64.06-1.8.2-.3.25-.45 2.42-.45 6.5 0 .97.19 1.47.57 1.49H8.9c1.2 0 2-.04 2.4-.12 1.04-.2 1.63-.7 1.77-1.53.06-.33.2-.5.4-.5s.31.03.35.1c.04.05.06.18.06.38l-.24 3.08.1 1.8c0 .48-.08.73-.22.73-.3 0-.52-.24-.66-.7-.28-.83-.53-1.31-.75-1.45-.42-.27-1.15-.4-2.19-.4H7.77l-.96-.04H6.6c-.82 0-1.23.19-1.23.56l-.06 4.23v1.18c0 1.4.24 2.19.72 2.35a5 5 0 0 0 1.29.2c3 0 5.17-.23 6.51-.7 1.19-.43 1.9-.88 2.17-1.35.24-.5.46-.74.66-.74.24 0 .36.17.36.5 0 .84-.43 1.7-1.3 2.56-.85.86-1.6 1.29-2.25 1.29-1.44 0-3.07-.05-4.9-.15-1.8-.1-2.91-.14-3.35-.14l-4.09.26c-.42 0-.63-.1-.63-.3v-.35c0-.11.1-.2.3-.23.22-.02.56-.14 1.02-.35.46-.22.76-.67.9-1.36.16-.68.24-2.12.24-4.31v-3.65m21 10.43l-2.18-.11c-.52 0-1.22.01-2.08.05l-1.29.06c-.3 0-.45-.09-.45-.26 0-.18.05-.29.15-.33.1-.03.22-.06.36-.08a.99.99 0 0 0 .45-.18c.38-.23.6-.94.63-2.11l.06-2.36v-4.23c0-.62-.12-1.04-.36-1.26a1.28 1.28 0 0 0-.93-.32h-.3c-.38 0-.57-.11-.57-.33 0-.2.21-.32.63-.38.44-.06.78-.12 1.02-.17a13.56 13.56 0 0 0 1.98-.8c.27-.12.44-.17.52-.17h.06c.18 0 .27.11.27.35l-.06 1.26c0 .51.04.77.12.77.08 0 .16-.05.24-.15.3-.41.7-.76 1.2-1.06.9-.55 1.76-.82 2.58-.82.82 0 1.55.13 2.2.38.63.24 1.13.54 1.5.91a5.24 5.24 0 0 1 1.5 3.64v.3l.03 1.56v3c0 .74.1 1.26.3 1.55.22.27.73.47 1.53.59.4.06.6.2.6.44 0 .2-.2.3-.6.3l-2.47-.15-2.3.11c-.4 0-.6-.12-.6-.38 0-.18.11-.3.35-.35l.4-.09c.43-.14.65-.8.65-1.97V14.5c0-1.5-.38-2.64-1.14-3.4a3.52 3.52 0 0 0-2.58-1.18c-.96 0-1.76.23-2.4.68-.64.45-1.03.87-1.17 1.26-.14.4-.21 1.9-.21 4.5v1.11c0 .98.1 1.7.3 2.18.22.47.69.73 1.4.79.2 0 .46.04.76.12.32.06.48.16.48.32 0 .26-.2.38-.57.38M43.45 8.81l1.38-.03c.34 0 .56.03.66.08a.3.3 0 0 1 .18.3c0 .14-.05.23-.15.3-.48.27-.82.54-1.02.82-.5.66-1.22 1.97-2.16 3.93-.94 1.96-1.8 3.7-2.58 5.2-.78 1.51-1.32 2.27-1.62 2.27-.2 0-.37-.11-.49-.33a43.9 43.9 0 0 1-1.2-2.58c-.66-1.53-1.34-3.06-2.04-4.59a28 28 0 0 0-1.68-3.26 4.3 4.3 0 0 0-.96-1.2l-.48-.33a.48.48 0 0 1-.15-.35c0-.21.19-.32.57-.32l2.13.12 1.74.02 1.17-.08c.36 0 .54.1.54.32 0 .33-.24.5-.72.5-.84 0-1.26.27-1.26.82 0 .32.16.81.48 1.5A387.79 387.79 0 0 1 38 16.6c.54 1.26.88 1.88 1.02 1.88.2 0 .8-1.18 1.83-3.55 1.02-2.37 1.53-3.76 1.53-4.17 0-.44-.1-.73-.3-.89a.78.78 0 0 0-.63-.23c-.62.08-.93-.08-.93-.47 0-.26.3-.38.93-.38l2.01.03m7.1 13.01a6.71 6.71 0 0 1-4.5-1.58c-1.23-1.06-1.84-2.6-1.84-4.59 0-2.02.56-3.7 1.68-5.05a5.51 5.51 0 0 1 4.42-2.03c.84 0 1.6.15 2.28.44.7.3 1.24.66 1.62 1.09.38.41.7.85.96 1.32.44.8.66 1.41.66 1.82 0 .35-.4.53-1.23.53h-7.72c-.16 0-.26.02-.3.06-.02.02-.03.1-.03.26 0 1.85.5 3.3 1.5 4.35a4.82 4.82 0 0 0 3.58 1.59c.84 0 1.69-.22 2.55-.65.88-.45 1.34-.67 1.38-.67.2 0 .3.09.3.26 0 .24-.22.56-.66.97a10 10 0 0 1-1.26.97c-.96.6-2.1.91-3.4.91m-3.42-8.75l5.29-.18c.28 0 .45-.02.51-.06.08-.06.12-.16.12-.3 0-.58-.28-1.27-.84-2.05a2.72 2.72 0 0 0-2.34-1.17c-1 0-1.78.39-2.32 1.17a3.81 3.81 0 0 0-.8 2.17c0 .28.12.42.38.42m9.58-2.47l-.33-.03c-.38 0-.57-.16-.57-.47 0-.22.13-.37.4-.47.27-.12.77-.29 1.5-.5a21.69 21.69 0 0 0 2.49-.91c.26 0 .39.2.39.59l-.03.79c0 .7.02 1.1.06 1.17.06.06.1.1.15.1.06 0 .22-.2.48-.6.26-.39.63-.78 1.1-1.17a2.2 2.2 0 0 1 1.42-.62c.48 0 .97.17 1.47.5.5.31.75.64.75.97 0 .31-.08.6-.24.88-.28.47-.54.7-.78.7a2.3 2.3 0 0 1-.87-.34c-.4-.24-.87-.36-1.41-.36-.54 0-1.05.22-1.53.65-.46.43-.7.82-.7 1.17v3.06l.04 2.56.03.52c0 .42.14.77.42 1.06.28.3.54.46.78.5a16.63 16.63 0 0 0 1.08.15c.1 0 .2.02.33.06.22.04.33.18.33.44 0 .23-.12.35-.36.35l-2.55-.15-3.13.15c-.36 0-.56-.04-.6-.12a.51.51 0 0 1-.06-.23c0-.26.13-.42.4-.5.51-.12.82-.36.92-.74.12-.39.18-1.21.18-2.46l-.03-4.73-.03-.89c0-.21-.03-.39-.09-.52-.16-.38-.63-.56-1.4-.56m13.38 10.78l-2.13.06c-.8 0-1.2-.13-1.2-.38 0-.28.15-.46.45-.56a.5.5 0 0 0 .12-.03c.46-.16.76-.4.9-.7.14-.32.21-1.84.21-4.56v-2.58c0-.57-.07-1.02-.2-1.36-.15-.33-.28-.53-.4-.61a1.62 1.62 0 0 0-.63-.18c-.28-.06-.5-.1-.63-.15-.12-.06-.18-.13-.18-.23 0-.12.02-.2.06-.27a5.07 5.07 0 0 1 .78-.38 10.9 10.9 0 0 0 2.2-.82c.2-.08.32-.14.38-.18.14-.06.31-.09.51-.09.3 0 .45.2.45.56l-.18 1.41v8.05c0 .6.1 1.05.27 1.38.2.34.4.54.6.62.22.08.47.13.75.15l.55.03c.28.04.42.17.42.41 0 .33-.17.5-.51.5l-.46-.03-2.13-.06M69.6 5.6c-.4 0-.76-.2-1.06-.61-.28-.42-.42-.75-.42-1 0-.28.17-.62.51-1.03.36-.43.7-.65 1-.65.31 0 .62.2.92.62.3.4.45.74.45 1.06 0 .31-.19.66-.57 1.05-.38.38-.66.56-.84.56m4.87 4.76l-.57.03c-.34 0-.5-.13-.5-.4 0-.2.08-.37.26-.5a9.53 9.53 0 0 0 2.28-2.21c.33-.45.58-.78.76-.97.2-.22.4-.32.6-.32.2 0 .3.22.3.67l-.12 1.68c0 .27.05.44.15.5.12.05.48.08 1.08.08h1.05c.9 0 1.45-.05 1.65-.14.36-.18.58-.27.66-.27.2 0 .3.11.3.33 0 .15-.13.47-.39.94-.26.45-.45.67-.57.67a20.38 20.38 0 0 1-3.12-.18l-.06-.02c-.38 0-.63.05-.75.17-.1.12-.15.38-.15.8l-.12 5.46c0 1.27.16 2.16.48 2.67.34.5 1.04.74 2.1.74.42 0 .88-.09 1.38-.27.52-.2.8-.29.84-.29.2 0 .3.13.3.38 0 .26-.35.6-1.05 1.03-.68.41-1.42.62-2.22.62-2.7 0-4.06-1.15-4.06-3.44v-.44l.12-6.85c0-.2-.04-.32-.12-.38-.08-.06-.25-.09-.5-.09M86.3 21.7c-2.36 0-3.54-.98-3.54-2.93 0-1.42.6-2.38 1.8-2.91a22.29 22.29 0 0 1 4.83-1.15l.3-.06.27-.06c.14-.06.21-.2.21-.4l.06-1.54c0-1.11-.33-1.92-.99-2.4-.66-.51-1.3-.77-1.92-.77-1.44 0-2.16.59-2.16 1.76l.12 1.06c0 .4-.18.59-.54.59-.28 0-.6-.05-.93-.15-.62-.2-.93-.53-.93-1 0-.76.52-1.49 1.56-2.17a5.72 5.72 0 0 1 3.18-1.06c1.06 0 1.9.1 2.5.3.6.2 1.03.42 1.31.67.3.24.54.56.7.97.2.49.3 1.26.3 2.32 0 1.04-.03 1.97-.1 2.8-.03.8-.05 1.53-.05 2.2 0 .66.08 1.21.24 1.64.16.41.35.68.57.8.22.11.44.18.66.2.54.04.8.2.8.47 0 .41-.62.62-1.88.62-.52 0-.98-.14-1.36-.41a3.2 3.2 0 0 1-.78-.8 1.9 1.9 0 0 0-.27-.4 7.68 7.68 0 0 1-.84.65 7.7 7.7 0 0 1-.84.52c-.74.43-1.5.64-2.28.64m3.66-6.55l-.3.06-.87.15a20.61 20.61 0 0 0-1.77.44l-.72.38c-.3.16-.52.32-.66.5a3.1 3.1 0 0 0-.54 1.73c0 .61.2 1.12.6 1.53.4.4.91.59 1.53.59.64 0 1.14-.08 1.5-.24.38-.15.66-.33.84-.53a2 2 0 0 0 .42-.79c.12-.37.18-.85.18-1.44v-2.11c0-.18-.07-.27-.2-.27m13.12-5.67l.12 1.76c0 .34-.04.56-.12.68-.08.12-.2.18-.36.18-.14 0-.3-.14-.48-.41-.16-.3-.35-.61-.57-.95-.2-.33-.54-.63-1.02-.9-.46-.3-1-.45-1.6-.45-.6 0-1.09.15-1.47.44-.38.28-.57.58-.57.91 0 .34.03.61.1.83.05.2.15.37.3.53l.38.4c.12.1.31.21.57.33.27.12.46.2.58.27.14.03.36.11.66.23 1.82.63 2.99 1.24 3.51 1.85.52.59.78 1.44.78 2.56 0 1.11-.53 2.14-1.6 3.08-.71.61-1.7.91-2.96.91-.87 0-1.83-.2-2.89-.61-.3-.12-.48-.18-.54-.18a2.24 2.24 0 0 0-.48-.15 7527.78 7527.78 0 0 1-.36-.17 1.43 1.43 0 0 0-.09-.15.93.93 0 0 1-.09-.47v-2.56c0-.21.04-.39.12-.53.1-.15.23-.23.4-.23.15 0 .26.05.32.15.08.08.15.25.21.53.06.27.12.47.18.58.74 1.8 1.78 2.7 3.13 2.7.62 0 1.2-.15 1.77-.46.56-.34.84-.85.84-1.53 0-.7-.23-1.27-.7-1.7a4.76 4.76 0 0 0-1.67-1l-1.99-.77a4.62 4.62 0 0 1-1.68-1.17 2.9 2.9 0 0 1-.69-1.97c0-1.1.45-1.98 1.35-2.65.9-.66 1.9-1 2.98-1s1.9.1 2.46.27c.56.16.89.3.99.44.12.14.18.26.18.38" fill="#002060" fill-rule="nonzero"/>
</svg>

